<svg xmlns="http://www.w3.org/2000/svg" xmlns:xlink="http://www.w3.org/1999/xlink" width="1024" height="1024" viewBox="0 0 1024 1024">
  <metadata><?xpacket begin="﻿" id="W5M0MpCehiHzreSzNTczkc9d"?>
<x:xmpmeta xmlns:x="adobe:ns:meta/" x:xmptk="Adobe XMP Core 5.6-c142 79.160924, 2017/07/13-01:06:39        ">
   <rdf:RDF xmlns:rdf="http://www.w3.org/1999/02/22-rdf-syntax-ns#">
      <rdf:Description rdf:about=""/>
   </rdf:RDF>
</x:xmpmeta>
                                                                                                    
                                                                                                    
                                                                                                    
                                                                                                    
                                                                                                    
                                                                                                    
                                                                                                    
                                                                                                    
                                                                                                    
                                                                                                    
                                                                                                    
                                                                                                    
                                                                                                    
                                                                                                    
                                                                                                    
                                                                                                    
                                                                                                    
                                                                                                    
                                                                                                    
                                                                                                    
                           
<?xpacket end="w"?></metadata>
<defs>
    <style>
      .cls-1 {
        fill: #fff;
        stroke: #000;
        stroke-linejoin: round;
        stroke-width: 4px;
        fill-rule: evenodd;
        filter: url(#filter);
      }
    </style>
    <filter id="filter" x="27" y="79" width="955" height="887" filterUnits="userSpaceOnUse">
      <feOffset result="offset" dy="10" in="SourceAlpha"/>
      <feGaussianBlur result="blur" stdDeviation="3.162"/>
      <feFlood result="flood"/>
      <feComposite result="composite" operator="in" in2="blur"/>
      <feBlend result="blend" in="SourceGraphic"/>
    </filter>
  </defs>
  <g style="fill: #fff; filter: url(#filter)">
    <path id="logo" class="cls-1" d="M942,193L899,343q-2,24.5-4,49c-10.593,43.74-78.275,85.578-126,92,15.885,33.166,40.16,81.118,27,135-5,.333-13.251-1.667-15,1-3.417,8.666-1.333,18-2,27-10.757-.111-17.461,1.8-23,6-9.833,16.583-7.25,17.667-6,21l-43-1c6.256,39.086,41.962,121.476,13,161h-6l-2-3c-0.182-18.032,3.52-24.955,7-36,16.515-52.423-28.747-80.845-49-100-12.626,3.869-25.1,12.169-39,18,8.237,38.544,62.2,218.657,3,243l-6-1c-16.6-32.127,3.486-92.4,9-125,6.142-36.31-6.141-78.329-16-103-7.694,6.047-17.8,9.667-30,6-35.088-61.631-53.145-93.573-65-183l-7,10c6.821,18.554,15.811,77.982-6,87h-1l0.006-1L512,646l-0.006,0L512,647.067h-1c-21.811-9.016-12.821-68.432-6-86.981l-7-10c-11.856,89.407-29.912,121.343-65,182.96-12.2,3.666-22.306.047-30-6-9.859,24.666-22.142,66.676-16,102.978,5.514,32.591,25.6,92.853,9,124.973l-6,1c-59.2-24.337-5.237-204.411,3-242.948-13.9-5.83-26.374-14.128-39-18-20.253,19.151-65.515,47.567-49,99.979,3.48,11.043,7.182,17.964,7,35.992q-1,1.5-2,3h-6c-28.962-39.515,6.744-121.887,13-160.965l-43,1c1.25-3.332,3.833-4.416-6-21-5.539-4.2-12.243-6.109-23-6-0.667-9,1.417-18.33-2-26.994-1.75-2.666-10-.667-15-1C214.84,565.2,239.115,517.261,255,484.1c-47.725-6.421-115.407-48.25-126-91.98q-2-24.492-4-48.989L82,193.165c-10.149-33.808-12.8-64.07-36-83.982l1-14C80.969,75.6,174.991,107.96,200,117.181c30.36,11.194,54.5,28.8,81,42.991,44.774,23.981,96.608,50.465,128,87.981,16.751,20.019,32.416,41.334,48,62.986,15.665,21.66,43.179,65.322,44,66.986,0.74,1.406.573,2,1,0q1-3.5,2-7c-2.6-2.157-4.793-11.256-7-10-3.267,1.862-17.775-20.114-11-28.994,2.842-4.686,5.912-4.437,12-3l1-1c-11.381-52.9-47.516-100.648-68-144.969,20.2,4.418,61.115,115.8,70,140.97h1q4-7,8-14,0.043,7.43.088,14.86h3.823q0.045-7.5.089-15l8,14h1c8.885-25.172,49.8-136.581,70-141-20.484,44.33-56.619,92.087-68,145l1,1c6.088-1.438,9.158-1.686,12,3,6.775,8.882-7.733,30.863-11,29-2.207-1.259-4.4,7.842-7,10q1,3.5,2,7c0.427,2,.26,1.406,1,0,0.821-1.665,28.335-45.336,44-67,15.584-21.657,31.249-42.976,48-63,31.391-37.524,83.225-64.014,128-88,26.5-14.195,50.64-31.8,81-43,25.009-9.223,119.031-41.593,153-22q0.5,7,1,14C954.805,128.916,952.149,159.185,942,193ZM775,594c1.786,2.619,8.048,2.214,11,0,2.237-10.347-.886-23.938-12-27C774.333,576,773.583,585.168,775,594Zm-537,.078c2.952,2.214,9.214,2.619,11,0,1.417-8.83.667-18,1-26.994C238.886,570.145,235.763,583.733,238,594.078ZM415,716.052c6.532,6.392,11.865,7.274,19,3,5.318-9.155,3.658-21.62,1-24C423.314,694.681,410.435,703.221,415,716.052Zm-37-23c5.958,2.666,12.958,4.166,18,0,2.735-5.486,4.17-11.824,0-17-4.708-4-19.417-10.372-23-6C365.945,679.285,372.105,687.034,378,693.057Zm-46-9c18.31,0.941,29.806-16.019,27-23-2.21-4.085-11.779-7.142-15-4-2.666,0,.291-9.123-11-10C320.881,649.37,325.509,679.638,332,684.059Zm-47-27.994c5.491,2.82,16.721,3.021,22-4,3.083-7.249.583-19.329-11-22-9.154-.269-12.854,4.826-14,7C280.237,641.331,280.371,652.572,285,656.065Zm-26-24c2.667,2.5,10-.417,16-6,7-10.789,3.918-25.181,1-26.994C262.518,593.416,251.331,606.663,259,632.07ZM176,399.12c-1.6,11.056-7.031,14.159-8,27,9.261-6.447,14.151-15.519,29-17-2.464-13.348-34.785-41.825-48-39.991A119.2,119.2,0,0,1,176,399.12ZM120,257.151c19.783-6.974,14.359-12.736-3-11C112.048,249.581,115.333,257.342,120,257.151Zm-8-137.97c-14.5-7.526-29.254,6.193-21,20,8.087,8.87,22.063,17.515,38,18C128.715,139.335,122.219,127.614,112,119.181Zm24,92.98c-5.134-21.178-25.089-38.749-33-37.992-23.291,4.657-4.173,34.52,33,38.992v-1Zm13,83.982c-2.536,2.067-1.646,12.339-2.521,12.589s-10.967,9.164-1.479,15.4c3.81,4.467,29.986,1.045,32-3C176.272,312.038,155.823,291.673,149,296.143Zm44-163.965c-12.167-5.5-45.333,1.167,12,75.984C220.46,182.081,216.179,145.165,193,132.178Zm83,135.971-48-6c-24.592-.257-51.1-1.544-67,7,7.337,7.261,32.888,55.115,30,69.985l-10,30.994,32,40.991c-4.073,9.443-8.993,16.806-7,29.993,18.059,11.851,38.685,16.678,61,26l-4,4q-0.5,2-1,4c66.973-24.283,126.871-68.643,219-66.986C456.525,327.713,358.478,290.073,276,268.149ZM904,257c4.667,0.19,7.952-7.571,3-11C889.641,244.261,884.217,250.025,904,257ZM856,426c-0.969-12.839-6.4-15.942-8-27a119.214,119.214,0,0,1,27-30c-13.215-1.834-45.536,26.648-48,40C841.849,410.478,846.739,419.552,856,426ZM749,626c6,5.583,13.333,8.5,16,6,7.669-25.413-3.518-38.663-17-33C745.082,600.813,742,615.209,749,626Zm-32,26c5.279,7.021,16.509,6.821,22,4,4.629-3.494,4.763-14.737,3-19-1.146-2.174-4.846-7.269-14-7C716.417,632.667,713.917,644.75,717,652Zm-25,32c6.491-4.422,11.119-34.7-1-37-11.291.875-8.334,10-11,10-3.221-3.143-12.79-.085-15,4C662.193,667.978,673.69,684.941,692,684Zm-64,9c5.042,4.167,12.042,2.667,18,0,5.895-6.024,12.055-13.775,5-23-3.583-4.375-18.292,2-23,6C623.83,681.173,625.265,687.513,628,693Zm-38,26c7.135,4.276,12.468,3.394,19-3,4.564-12.833-8.315-21.375-20-21C586.342,697.375,584.682,709.843,590,719ZM831,132c-23.179,12.99-27.46,49.914-12,76C876.333,133.167,843.167,126.5,831,132ZM796,262l-48,6c-82.478,21.928-180.525,59.577-205,140,92.129-1.657,152.027,42.711,219,67q-0.5-2-1-4l-4-4c22.315-9.319,42.941-14.147,61-26,1.993-13.19-2.927-20.555-7-30l32-41-10-31c-2.888-14.874,22.663-62.738,30-70C847.1,260.456,820.592,261.743,796,262Zm81.52,46.592c-0.875-.25.016-10.524-2.52-12.592-6.823-4.471-27.272,15.9-28,25,2.014,4.046,28.19,7.469,32,3C888.488,317.758,878.4,308.842,877.52,308.592ZM888,213c37.173-4.473,56.291-34.342,33-39-7.911-.758-27.866,16.817-33,38v1Zm24-94c-10.219,8.435-16.715,20.158-17,38,15.937-.481,29.913-9.127,38-18C941.254,125.194,926.5,111.472,912,119Z" style="stroke: inherit; filter: none; fill: inherit"/>
  </g>
  <use xlink:href="#logo" style="stroke: #000; filter: none; fill: none"/>
</svg>
